<?xml version="1.0" encoding="utf-8"?>
<!-- Generator: Adobe Illustrator 12.0.0, SVG Export Plug-In . SVG Version: 6.00 Build 51448)  -->
<!DOCTYPE svg PUBLIC "-//W3C//DTD SVG 1.1//EN" "http://www.w3.org/Graphics/SVG/1.1/DTD/svg11.dtd" [
	<!ENTITY ns_svg "http://www.w3.org/2000/svg">
	<!ENTITY ns_xlink "http://www.w3.org/1999/xlink">
]>
<svg  version="1.1" id="Layer_1" xmlns="&ns_svg;" xmlns:xlink="&ns_xlink;" width="13.877" height="13.855"
	 viewBox="0 0 13.877 13.855" overflow="visible" enable-background="new 0 0 13.877 13.855" xml:space="preserve">
<g>
	<path fill="#939598" d="M7.848,0.045c2.888,0.372,5.281,2.581,5.878,5.435c0.281,1.331,0.166,2.762-0.321,3.987
		c-0.369,0.925-0.859,1.669-1.563,2.372c-1.038,1.037-2.272,1.678-3.741,1.943c-0.347,0.063-0.503,0.072-1.165,0.072
		c-0.663,0-0.819-0.01-1.166-0.072c-1.469-0.266-2.703-0.906-3.74-1.943c-1.141-1.141-1.838-2.594-2.004-4.185
		c-0.053-0.5-0.021-1.447,0.063-1.916c0.488-2.712,2.479-4.859,5.141-5.54c0.226-0.057,0.566-0.125,0.754-0.15
		C6.455-0.014,7.367-0.017,7.848,0.045z"/>
	<path fill="#FFFFFF" stroke="#FFFFFF" stroke-width="0.0313" d="M5.392,3.139C4.658,3.273,3.999,3.786,3.689,4.47
		c-0.21,0.459-0.206,0.425-0.206,2.354c0,1.946-0.004,1.906,0.219,2.371c0.237,0.491,0.605,0.859,1.094,1.098
		c0.49,0.234,0.475,0.234,2.375,0.234c1.862,0,1.875,0,2.318-0.203c0.65-0.301,1.084-0.813,1.315-1.563
		c0.038-0.125,0.05-0.391,0.06-1.351c0.016-1.31,0.013-1.334-0.172-1.425c-0.047-0.025-0.244-0.053-0.456-0.065
		C9.811,5.895,9.679,5.851,9.608,5.717C9.583,5.664,9.53,5.426,9.495,5.189C9.398,4.561,9.289,4.292,8.97,3.929
		c-0.284-0.324-0.875-0.688-1.3-0.793C7.417,3.07,5.754,3.074,5.392,3.139z M7.395,5.092c0.278,0.172,0.263,0.609-0.028,0.769
		c-0.091,0.05-0.19,0.057-0.868,0.057c-0.71,0-0.772-0.004-0.872-0.063C5.389,5.714,5.333,5.371,5.517,5.176
		c0.05-0.05,0.118-0.106,0.153-0.118C5.705,5.042,6.083,5.03,6.51,5.03C7.249,5.027,7.292,5.03,7.395,5.092z M8.705,7.764
		c0.303,0.144,0.31,0.618,0.006,0.784C8.617,8.601,8.495,8.605,7.17,8.605c-1.382,0-1.441-0.004-1.544-0.063
		C5.335,8.371,5.338,7.955,5.629,7.777c0.1-0.06,0.162-0.063,1.534-0.063C8.417,7.714,8.611,7.72,8.705,7.764z"/>
</g>
</svg>
